<svg width="25" height="25" viewBox="0 0 25 25" fill="none" xmlns="http://www.w3.org/2000/svg">
<g id="vuesax/outline/search-normal">
<g id="search-normal">
<path id="Vector" d="M11.7148 21.95C6.06484 21.95 1.46484 17.35 1.46484 11.7C1.46484 6.04995 6.06484 1.44995 11.7148 1.44995C17.3648 1.44995 21.9648 6.04995 21.9648 11.7C21.9648 17.35 17.3648 21.95 11.7148 21.95ZM11.7148 2.94995C6.88484 2.94995 2.96484 6.87995 2.96484 11.7C2.96484 16.52 6.88484 20.45 11.7148 20.45C16.5448 20.45 20.4648 16.52 20.4648 11.7C20.4648 6.87995 16.5448 2.94995 11.7148 2.94995Z" fill="white"/>
<path id="Vector_2" d="M22.2153 22.95C22.0253 22.95 21.8353 22.88 21.6853 22.73L19.6853 20.73C19.3953 20.44 19.3953 19.96 19.6853 19.67C19.9753 19.38 20.4553 19.38 20.7453 19.67L22.7453 21.67C23.0353 21.96 23.0353 22.44 22.7453 22.73C22.5953 22.88 22.4053 22.95 22.2153 22.95Z" fill="white"/>
</g>
</g>
</svg>
